<svg version="1.1" viewBox="0.0 0.0 960.0 540.0" fill="none" stroke="none" stroke-linecap="square" stroke-miterlimit="10" xmlns:xlink="http://www.w3.org/1999/xlink" xmlns="http://www.w3.org/2000/svg"><clipPath id="g11b6f2c9426_0_346.0"><path d="m0 0l960.0 0l0 540.0l-960.0 0l0 -540.0z" clip-rule="nonzero"/></clipPath><g clip-path="url(#g11b6f2c9426_0_346.0)"><path fill="#000000" fill-opacity="0.0" d="m0 0l960.0 0l0 540.0l-960.0 0z" fill-rule="evenodd"/><path fill="#ff614d" d="m438.27472 108.96072c14.792236 0 29.739288 6.8285065 36.163605 31.08091c17.699097 67.04669 -59.340973 75.70703 -59.340973 75.70703l-14.697632 -95.461555c0 0 18.808502 -11.3263855 37.875 -11.3263855zm9.597748 -35.73359c-37.840607 0 -79.895294 29.704887 -79.895294 29.704887l29.128693 214.04892l31.347504 -0.6708069l-9.692352 -70.10835c0 0 104.190704 -0.92881775 85.80359 -113.822876c-7.4219055 -45.563538 -31.089508 -59.151764 -56.69214 -59.151764z" fill-rule="evenodd"/><path fill="#ff614d" d="m548.1325 204.6028c18.197937 0 22.867798 30.711105 22.867798 30.711105l-50.80963 0c0 0 0.39562988 -23.59018 22.816162 -29.96289c1.8232422 -0.51600647 3.526062 -0.7482147 5.1256714 -0.7482147zm-6.321106 -25.215607c-33.85013 0 -46.74173 40.92807 -46.74173 40.92807c0 0 -32.431152 119.129135 35.983 133.31938c5.6760864 1.1782227 10.861938 1.7200317 15.617859 1.7200317c52.607056 0 51.626648 -66.066284 51.626648 -66.066284l-28.930908 -5.8996887l0 0c0 0 2.9068604 42.157867 -28.982483 42.157867c-43.559692 0 -22.523743 -66.90909 -22.523743 -66.90909l0 0l80.43713 1.763031c0 0 7.060669 -61.336197 -39.526245 -77.86566c-6.157715 -2.193039 -11.799438 -3.1476593 -16.959534 -3.1476593z" fill-rule="evenodd"/><path fill="#ff614d" d="m603.0613 73.51093l1.7630005 71.802574l-51.050415 -2.5714417l0 26.823837l52.813477 6.26091l7.9293213 166.73953l29.928467 -0.9976196l-10.560974 -162.17285l40.51526 0l0 -31.252914l-36.98059 -2.8294525l0 -71.802574z" fill-rule="evenodd"/><path fill="#ff614d" d="m383.07062 322.74283c-0.111816406 0 -0.2236023 0 -0.32681274 0c-17.19168 0.06881714 -30.091888 5.3664856 -38.39102 15.764069c-15.789856 19.72873 -8.591553 50.64624 -7.697113 54.180878c0.60198975 3.732483 6.2006836 27.959076 49.777588 41.7193c15.996277 5.06546 26.196045 13.82901 29.395294 25.361816c3.0702515 10.92218 -0.69662476 22.454956 -5.968506 28.182648c-5.624481 6.1147156 -21.577759 13.915039 -36.197998 13.915039c-4.2570496 0 -8.402313 -0.66223145 -12.143372 -2.2188416c-14.439636 -5.994293 -17.501312 -23.787994 -17.036896 -39.78424l0 0l11.197388 0.73098755l0.739624 -10.294373l-35.15738 -2.3306274l-0.73101807 10.259979l13.321625 0.8944092c-1.0922241 32.594543 11.902588 45.18515 23.469788 49.98401c5.091278 2.132843 10.629761 3.0358582 16.194061 3.0358582c18.455902 0 37.445007 -9.898773 44.307922 -17.355072c6.966095 -7.5681458 12.5303955 -22.59259 8.299133 -37.72882c-2.9326477 -10.4921875 -11.62738 -24.622223 -36.387207 -32.448334c-39.18222 -12.392822 -42.450287 -32.689148 -42.54489 -33.463165l-0.13760376 -0.7224121c-0.06878662 -0.30960083 -7.4993286 -29.06845 5.7276917 -45.615143c6.166321 -7.76593 16.262878 -11.704773 29.997284 -11.764984l0.25802612 0c13.992432 0 23.865387 3.7668457 29.386658 11.162994c7.740143 10.354553 5.8051147 25.920807 3.90448 34.48654l-10.130981 -3.5002441l-3.5690308 9.726746l30.298279 10.42337l3.5604553 -9.71814l-10.036346 -3.4314575c2.3736267 -9.872955 5.203064 -29.7565 -5.35791 -43.989716c-7.6197205 -10.268585 -20.365112 -15.463074 -38.02121 -15.463074z" fill-rule="evenodd"/><path fill="#ff614d" d="m452.0863 334.5078l-10.595398 0.13760376l1.9952393 165.1055l-12.5303955 0.73101807l0.60202026 10.526581l30.685272 -1.7286377l-0.5589905 -10.526581l-7.6369324 0.4300232l-0.8686218 -82.905365c5.8825073 -2.3994446 15.506073 -5.392273 24.278198 -5.392273c4.60968 0 8.978546 0.82559204 12.4444275 2.9928284c5.8308716 3.6636658 8.797943 11.102783 8.858124 22.128174c0.111816406 24.820007 1.3072205 52.177063 0.9718323 57.64673l-8.195953 -0.34399414l-0.42999268 10.56958l25.086578 0.9976196l0.4300537 -10.560974l-6.329712 -0.23220825c0.32678223 -5.830902 -0.8686218 -33.282562 -0.9632263 -58.14557c-0.06878662 -14.895416 -4.738678 -25.318787 -13.829041 -31.02069c-5.392273 -3.3712463 -11.730591 -4.5838623 -18.051666 -4.5838623c-9.167755 0 -18.301117 2.5456238 -24.433014 4.71286l-0.9288025 -70.53836z" fill-rule="evenodd"/><path fill="#ff614d" d="m656.5711 363.32687c14.852417 0 34.05658 2.3822327 43.08673 12.031616c5.1342773 5.4696655 6.656494 12.83139 4.6956787 22.463562c-2.2962646 11.257568 -7.1983643 18.593506 -14.998657 22.360352c-4.497864 2.1930542 -9.597778 3.0272522 -14.740662 3.0272522c-15.979065 0 -32.37091 -8.032532 -32.568726 -8.16153l-0.06878662 0.16339111l3.1992188 -51.41162c3.2078857 -0.27520752 7.1209106 -0.47302246 11.395203 -0.47302246zm0.40423584 -10.560974c-9.623596 0 -16.753113 0.93740845 -17.492737 1.0406189l-4.308655 0.5934143l-8.522705 144.48236l-16.159668 -2.4682312l-1.5996704 10.431976l37.118225 5.701874l1.5996094 -10.46637l-10.46637 -1.5996094l4.1366577 -74.17621c6.4071045 2.7004395 19.642761 7.456299 33.334167 7.456299c6.5791016 0 13.261414 -1.1007996 19.341736 -4.059265c10.793152 -5.263275 17.759277 -15.256653 20.726318 -29.790894c2.6660767 -13.020599 0.19781494 -23.75357 -7.2929077 -31.786102c-12.031616 -12.840027 -34.589783 -15.359863 -50.414 -15.359863z" fill-rule="evenodd"/><path fill="#20384f" d="m621.2478 61.841175l-0.9713135 0.331398l3.473938 10.427578l4.2510376 6.085129l0.8399048 -0.59423065l-4.165283 -5.959427l-3.4282837 -10.290447z" fill-rule="evenodd"/><path fill="#20384f" d="m624.14465 71.80568l-3.2739258 1.9883804l0.5313721 0.902771l2.8968506 -1.7655487l6.6221924 1.8169708l0.2685547 -0.99990845l-7.045044 -1.9426651z" fill-rule="evenodd"/><path fill="#20384f" d="m611.1519 61.046986l-0.9484863 10.890392l-0.022827148 0.06285095l1.4798584 7.2621613l1.039856 -0.19998169l-1.4569702 -7.1250305l0.9484863 -10.810398l-1.039917 -0.0799942z" fill-rule="evenodd"/><path fill="#20384f" d="m610.86633 71.42858l-3.7825317 0.5313721l0.13140869 1.0113373l3.3425293 -0.46281433l5.353821 4.3138733l0.66278076 -0.8170624l-5.708008 -4.576706z" fill-rule="evenodd"/><path fill="#20384f" d="m642.83374 29.073738l0 5.2966385l10.096191 -2.1255112l-10.096191 -3.1711273z" fill-rule="evenodd"/><path fill="#ffd966" d="m634.4873 24.005785c-2.3140259 0 -4.6566772 0.6970749 -6.6221924 1.9255295c-3.0111694 1.8798199 -5.1766357 4.936672 -6.376526 8.2335c0 0 -10.907532 1.0456123 -18.838196 7.5307083c-0.57141113 -2.2797813 -1.1942139 -4.668125 -2.8111572 -6.3993874c-1.0342407 -1.1256065 -2.628357 -1.868393 -4.142517 -1.868393c-0.588501 0 -1.1712646 0.11427307 -1.7026367 0.35996628c-0.1942749 0.09141922 -0.41711426 0.20569229 -0.5942383 0.35996246c-2.1483765 1.5712814 -1.8855591 4.759548 -1.354187 7.325016c1.0913086 5.199505 2.9711304 9.919052 5.690918 14.524326c2.7254028 4.59956 7.0164795 8.564899 12.31311 9.850491c1.394104 0.3371048 2.7940063 0.5028076 4.176697 0.5028076c4.593872 0 8.981995 -1.8169708 12.335999 -5.1480827c4.359558 -4.319584 6.576477 -10.456142 6.8621826 -16.518421c2.5654907 -1.3312988 5.0909424 -2.5883217 7.1707764 -4.5595627c1.8397827 -1.7484055 3.2510986 -4.028187 3.5482178 -6.4908104c0.039978027 -0.32567978 0.06286621 -0.6627922 0.039978027 -0.9941902c-0.022827148 -3.5196629 -2.6340332 -6.747925 -5.9994507 -7.9878063c-1.177002 -0.43995857 -2.434021 -0.6456528 -3.6967773 -0.6456528z" fill-rule="evenodd"/><path fill="#f1c232" d="m644.14355 33.633183c-0.9827881 1.5084267 -2.1255493 2.8797264 -3.4854126 4.079609c-3.2682495 2.9197235 -7.2335815 4.759548 -11.638855 5.022381c-0.7770996 4.7595444 -2.611206 9.496235 -6.022278 12.8844795c-2.651184 2.634037 -6.3479614 4.3310165 -10.033325 4.3310165c-1.0742188 0 -2.1541138 -0.14855576 -3.2054443 -0.4570999c-3.1882324 -0.9484787 -5.7765503 -3.2568321 -7.9020996 -5.799446c-4.628113 -5.582321 -7.416443 -12.661648 -7.8620605 -19.90667c-0.1942749 0.091423035 -0.41711426 0.2056961 -0.5942383 0.35996628c-2.1483765 1.5712776 -1.8855591 4.7595444 -1.354187 7.325016c1.0913086 5.199501 2.9711304 9.919052 5.690918 14.524326c2.7254028 4.59956 7.0164795 8.564892 12.31311 9.850483c1.394104 0.33711243 2.7940063 0.50281525 4.176697 0.50281525c4.593872 0 8.981995 -1.8169708 12.335999 -5.1480827c4.359558 -4.3195877 6.576477 -10.456142 6.8621826 -16.518421c2.5654907 -1.3313026 5.0909424 -2.5883255 7.1707764 -4.5595627c1.8397827 -1.7484055 3.2510986 -4.028187 3.5482178 -6.4908104z" fill-rule="evenodd"/><path fill="#85e6d4" fill-opacity="0.7885" d="m618.3746 33.987427c-6.2908325 0 -20.386658 1.9483833 -25.820435 18.621078c0 0 1.1998901 0.48566818 3.1254272 1.0627556c2.5826416 0.7770653 6.462219 1.6855507 10.444702 1.6855507c8.284912 0 17.009827 -3.9367638 15.364258 -21.19226c0 0 -1.1941528 -0.17712402 -3.1139526 -0.17712402z" fill-rule="evenodd"/><path fill="#20384f" d="m637.1659 28.719496c-0.49139404 0 -0.8913574 0.9084854 -0.8913574 2.0398064c0 1.1084652 0.39996338 2.0169506 0.8913574 2.0169506c0.48565674 0 0.8856201 -0.9084854 0.8856201 -2.0169506c0 -1.131321 -0.39996338 -2.0398064 -0.8856201 -2.0398064z" fill-rule="evenodd"/><path fill="#508c80" d="m618.3746 33.987427c-6.2908325 0 -20.386658 1.9483833 -25.820435 18.621078c0 0 1.1998901 0.48566818 3.1254272 1.0627556c7.085022 -8.193504 15.872742 -14.878578 25.80896 -19.50671c0 0 -1.1941528 -0.17712402 -3.1139526 -0.17712402z" fill-rule="evenodd"/><path fill="#ff614d" d="m569.8063 376.82837c22.286316 0 40.387573 18.136353 40.387573 40.389557c0 22.287445 -18.101257 40.389587 -40.387573 40.389587c-22.277771 0 -40.387573 -18.102142 -40.387573 -40.389587c0 -22.253204 18.109802 -40.389557 40.387573 -40.389557zm0 -10.510345c-28.080444 0 -50.8974 22.84375 -50.8974 50.899902c0 28.090393 22.816956 50.90851 50.8974 50.90851c28.054749 0 50.905945 -22.818115 50.905945 -50.90851c0 -28.056152 -22.851196 -50.899902 -50.905945 -50.899902z" fill-rule="evenodd"/><path fill="#92babf" fill-opacity="0.6269" d="m695.3873 503.69482l0 0c0 -4.759552 13.292114 -9.324158 36.95221 -12.689667c23.660095 -3.365509 55.75006 -5.2562256 89.21045 -5.2562256l0 0c69.67767 0 126.16266 8.034637 126.16266 17.945892l0 0c0 9.911255 -56.484985 17.945862 -126.16266 17.945862l0 0c-69.677734 0 -126.16266 -8.034607 -126.16266 -17.945862z" fill-rule="evenodd"/><path fill="#273857" d="m726.7764 425.50372c0.90966797 0 1.8270264 0.0675354 2.7138062 0.18011475c10.014404 1.3133545 19.34082 7.06958 24.883118 15.384949l-6.253235 12.998413c-8.1414795 -1.4559631 -15.961914 -4.713043 -22.689148 -9.448608c-2.7520752 -1.9512634 -5.4124146 -4.247772 -6.8342896 -7.302246c-1.421875 -3.0469666 -1.2766113 -7.002014 1.0932007 -9.38855c1.8040771 -1.8387146 4.433838 -2.4240723 7.086548 -2.4240723z" fill-rule="evenodd"/><path fill="#ffd966" d="m861.7137 257.87875l-0.97351074 10.968048l-1.798645 20.598053l-30.281006 0.6007385c0 0 -0.074157715 -0.07281494 -0.13909912 -0.18203735c-0.7602539 -1.0194397 -5.2476807 -6.9813232 -10.096741 -13.753265c-2.5496826 -3.595337 -5.2106323 -7.4091187 -7.4729004 -10.822418c-1.0476685 -1.5564575 -1.9747925 -3.0310059 -2.7999878 -4.4145203l0 0c0 0 1.4000244 44.22711 1.6132202 79.816345c0.037109375 8.109985 0.037109375 15.755737 -0.111206055 22.354767c0 0 -90.23102 29.973236 -62.536804 112.67493c4.709961 14.035461 16.308655 24.830536 30.892883 28.425873c5.9245605 1.4745483 13.035828 2.4575806 21.44519 2.4575806c0.6675415 0 1.335083 -0.009124756 2.0119019 -0.018218994c5.4609375 -0.11831665 11.422607 -0.637146 18.005432 -1.6929932c0 0 13.46228 -1.5291443 8.585449 -11.43222c-0.72314453 -1.4108276 -1.4092407 -2.6123047 -2.123169 -3.6681519l0 0c7.1762085 0.9102173 14.259705 1.2651978 20.953735 1.2651978c0.30596924 0 0.6119385 0 0.9179077 0c3.8477173 9.311432 7.7974243 15.628296 11.459656 15.628296c2.586792 0 3.2728882 -6.171234 2.698059 -16.229034c9.271545 -0.6644592 16.994812 -1.856842 22.131226 -2.8216553c4.2649536 11.186462 8.724609 19.05069 12.822632 19.05069c0.5377197 0 1.0013428 -0.28216553 1.4000244 -0.81918335c8.149719 -11.213806 -19.470337 -136.7864 -27.267761 -171.3107l0 0c10.13385 2.639618 19.470337 3.695465 27.805481 3.76828c0.32452393 0 0.6489868 0 0.97351074 0c11.172241 0 20.57367 -1.8295288 27.759094 -3.9776306c10.606689 -3.1401978 16.457092 -7.0632324 16.457092 -7.0632324c0 0 -32.11676 -8.03714 -59.848083 -37.41873c-6.749695 -7.190674 -13.249084 -15.619202 -18.997437 -25.531403c-1.1960449 -2.0752869 -2.3735352 -4.223358 -3.486145 -6.4533997z" fill-rule="evenodd"/><path fill="#f1c232" d="m808.1518 260.87335c0 0 1.4000244 44.227142 1.6132202 79.816345c0.037109375 8.109985 0.037109375 15.755737 -0.111206055 22.354767c0 0 -90.23102 29.973236 -62.536804 112.67496c4.709961 14.035431 16.308655 24.830536 30.892883 28.425842c5.9245605 1.4745483 13.035828 2.4575806 21.44519 2.4575806c0.6675415 0 1.335083 -0.009094238 2.0119019 -0.018218994c-8.58551 -7.8368835 -16.382874 -16.338257 -22.12201 -26.286865c-9.957642 -17.139252 -12.618591 -39.849 -1.2609253 -56.141754c9.160339 -13.152557 25.431946 -19.815308 35.85321 -32.048523c14.621277 -17.212067 14.982849 -42.069916 11.598755 -64.26083c-2.6238403 -17.202972 -7.0463867 -34.524292 -7.111328 -51.73636c-2.5496826 -3.595337 -5.2106323 -7.4091187 -7.4729004 -10.822418c-1.0476685 -1.5564575 -1.9747925 -3.0309753 -2.7999878 -4.4145203z" fill-rule="evenodd"/><path fill="#f1c232" d="m860.3043 331.23276c7.9457397 40.76831 15.882202 81.50021 23.827942 122.268555c3.4490356 17.776398 6.9629517 35.72574 14.185547 52.36438c8.149719 -11.213776 -19.470337 -136.7864 -27.267761 -171.31067c-3.486084 -0.92840576 -7.0741577 -2.0206604 -10.745728 -3.3222656z" fill-rule="evenodd"/><path fill="#273857" d="m851.9043 302.59747c-1.1867676 0 -2.12323 1.7658081 -2.12323 3.9503174c0 2.2209167 0.9364624 3.9867249 2.12323 3.9867249c1.1867676 0 2.151001 -1.7658081 2.151001 -3.9867249c0 -2.1845093 -0.9642334 -3.9503174 -2.151001 -3.9503174z" fill-rule="evenodd"/><path fill="#273857" d="m877.0117 302.59747c-1.1867676 0 -2.151062 1.7658081 -2.151062 3.9503174c0 2.2209167 0.96429443 3.9867249 2.151062 3.9867249c1.1867065 0 2.1602783 -1.7658081 2.1602783 -3.9867249c0 -2.1845093 -0.9735718 -3.9503174 -2.1602783 -3.9503174z" fill-rule="evenodd"/><path fill="#273857" d="m865.41296 413.33386l-1.9099731 0.39138794c0.037109375 0.24575806 4.6729126 23.583557 10.959045 46.62097c3.6993408 13.571259 7.222534 24.393646 10.532471 32.157745c4.3112793 10.194366 8.223938 15.13678 11.923279 15.13678l0 -1.9023132c-1.5854492 0 -4.960327 -1.838623 -10.096741 -13.971741c-3.2728882 -7.691284 -6.786804 -18.40445 -10.449097 -31.884674c-6.286133 -22.991913 -10.894104 -46.3024 -10.958984 -46.548157z" fill-rule="evenodd"/><path fill="#273857" d="m827.7611 413.33386l-1.9006958 0.39138794c0.037109375 0.24575806 4.6729126 23.583557 10.949768 46.62097c3.6993408 13.571259 7.2318115 24.393646 10.532471 32.157745c4.3112793 10.194366 8.223938 15.13678 11.923279 15.13678c0.7602539 0 1.4370728 -0.32766724 1.9841309 -0.92840576c1.7244873 -1.9660645 3.5510254 -8.137268 -0.7973633 -38.99341l-1.9377441 0.24575806c4.0980225 29.199554 2.5496826 36.035217 1.2238159 37.482452c-0.1854248 0.24575806 -0.36157227 0.29129028 -0.47283936 0.29129028c-1.5761719 0 -4.960327 -1.838623 -10.087463 -13.971741c-3.2728882 -7.691284 -6.7960815 -18.40445 -10.458374 -31.884674c-6.286133 -22.991913 -10.884827 -46.3024 -10.958984 -46.548157z" fill-rule="evenodd"/><path fill="#273857" d="m784.945 423.17325l-0.76031494 1.7658081c14.5563965 5.925476 22.381592 26.660065 26.980286 41.751373c3.486145 11.423126 6.972229 15.382538 10.347107 19.187225c1.9748535 2.2481995 3.8477173 4.3690186 5.637146 8.009857c1.1589355 2.3210144 1.2609253 4.2597656 0.39868164 5.816223c-1.9378052 3.449707 -8.112671 4.1960754 -8.196106 4.2233887l0.22253418 1.911438c0.28741455 -0.03640747 7.2596436 -0.8464966 9.698059 -5.1791077c1.223877 -2.157196 1.0755005 -4.696686 -0.35229492 -7.6184387c-1.9099731 -3.8501892 -3.9589844 -6.1803284 -5.933838 -8.428558c-3.2357788 -3.677246 -6.536438 -7.445526 -9.911316 -18.486359c-3.3841553 -11.0772705 -6.786804 -19.323792 -10.67157 -25.986511c-5.062317 -8.719818 -10.773621 -14.290314 -17.458374 -16.96634z" fill-rule="evenodd"/><path fill="#273857" d="m943.5075 326.50876c-0.101989746 0.03640747 -8.835815 5.752533 -23.818726 8.847229c-5.4331665 1.1195679 -12.145752 1.9842529 -19.933899 1.9842529c-12.080872 0 -26.72998 -2.084381 -43.177734 -8.546875l-0.7602539 1.8113403c16.744446 6.5534973 31.64386 8.674286 43.93799 8.674286c7.973572 0 14.871643 -0.9193115 20.43457 -2.0479736c15.344482 -3.2130432 24.041199 -8.892761 24.393555 -9.138489l-1.0755005 -1.5837708z" fill-rule="evenodd"/><path fill="#f1c232" d="m861.7136 257.87875l-0.9735718 10.968048c13.823975 28.389465 37.967163 51.872894 66.848145 65.49872c10.606689 -3.1401978 16.457031 -7.0632324 16.457031 -7.0632324c0 0 -32.11676 -8.03714 -59.848022 -37.41873c-6.749756 -7.190674 -13.249084 -15.619202 -18.997498 -25.531403c-1.1960449 -2.0752869 -2.3735352 -4.223358 -3.486084 -6.4533997z" fill-rule="evenodd"/><path fill="#273857" d="m941.89417 316.4873c-3.1986694 0 -5.822571 3.5680237 -5.822571 7.9461365c0 4.405426 2.6239014 7.9643555 5.822571 7.9643555c3.2265015 0 5.8132935 -3.5589294 5.8132935 -7.9643555c0 -4.378113 -2.586792 -7.9461365 -5.8132935 -7.9461365z" fill-rule="evenodd"/><path fill="#f1c232" d="m843.8936 385.5451c-3.810608 0 -6.860962 6.562622 -6.860962 14.599762c0 8.073578 3.050354 14.6362 6.860962 14.6362c3.7735596 0 6.861023 -6.562622 6.861023 -14.6362c0 -8.03714 -3.0874634 -14.599762 -6.861023 -14.599762z" fill-rule="evenodd"/><path fill="#f1c232" d="m854.38904 432.867c-1.8079224 0 -3.2357788 3.1038208 -3.2357788 6.9176025c0 3.841095 1.4278564 6.9176025 3.2357788 6.9176025c1.7894287 0 3.2636108 -3.0765076 3.2636108 -6.9176025c0 -3.8137817 -1.4741821 -6.9176025 -3.2636108 -6.9176025z" fill-rule="evenodd"/><path fill="#f1c232" d="m808.54114 415.2726c-1.4741821 0 -2.6887817 2.5394897 -2.6887817 5.7161255c0 3.1675415 1.2145996 5.7070312 2.6887817 5.7070312c1.4741821 0 2.697998 -2.5394897 2.697998 -5.7070312c0 -3.1766357 -1.2238159 -5.7161255 -2.697998 -5.7161255z" fill-rule="evenodd"/><path fill="#f1c232" d="m817.4975 429.41733c-2.234497 0 -4.033142 3.8410645 -4.033142 8.610565c0 4.7513123 1.798645 8.628815 4.033142 8.628815c2.2158813 0 4.0516357 -3.8775024 4.0516357 -8.628815c0 -4.7695007 -1.8357544 -8.610565 -4.0516357 -8.610565z" fill-rule="evenodd"/><path fill="#f1c232" d="m795.97815 459.67276c-2.697998 0 -4.8953857 4.6602783 -4.8953857 10.403717c0 5.743408 2.1973877 10.403687 4.8953857 10.403687c2.6887817 0 4.876831 -4.6602783 4.876831 -10.403687c0 -5.7434387 -2.1880493 -10.403717 -4.876831 -10.403717z" fill-rule="evenodd"/><path fill="#92babf" fill-opacity="0.6269" d="m33.49254 505.52206l0 0c0 -5.8096924 15.9163475 -11.38147 44.247635 -15.489532c28.331284 -4.1080933 66.756744 -6.415985 106.82323 -6.415985l0 0c83.43413 0 151.07088 9.807434 151.07088 21.905518l0 0c0 12.098053 -67.63675 21.905487 -151.07088 21.905487l0 0c-83.43413 0 -151.07086 -9.807434 -151.07086 -21.905487z" fill-rule="evenodd"/><path fill="#342752" d="m84.32632 221.36993c-64.93946 0 -85.94202 79.68405 -42.570507 117.376434c0 0 6.2666054 -27.279846 22.93436 -27.279846c2.567894 0 5.383156 0.63604736 8.457565 2.131958c22.19226 10.74234 -31.5215 133.70197 64.91591 133.70197c3.910736 0 8.068832 -0.20025635 12.486084 -0.6242981l-9.54126 -140.4748c0 0 8.316208 -84.83142 -56.68215 -84.83142z" fill-rule="evenodd"/><path fill="#91ddd4" fill-opacity="0.8423" d="m241.73134 380.74918c11.1432495 0 22.227615 1.5901489 30.897202 8.221649c12.68634 9.623322 16.337921 27.185638 16.161255 43.122437c-0.14135742 15.925049 -3.4749146 34.26474 -0.27093506 49.871735c-18.093048 7.361786 -37.61142 11.036804 -57.141556 11.036804c-19.494797 0 -38.989594 -3.6632385 -57.047302 -10.989685c-16.208359 -6.5726013 -26.350372 -24.594269 -30.897202 -41.48517c-4.6174927 -16.926239 0.082458496 -37.103455 14.465027 -47.09192c9.435242 -6.572632 21.403046 -7.986084 32.80545 -9.081512c13.051498 -1.2367859 26.114777 -2.2850952 39.154495 -3.1567383c3.8989563 -0.24737549 7.892151 -0.44760132 11.873566 -0.44760132z" fill-rule="evenodd"/><path fill="#91ddd4" fill-opacity="0.8423" d="m195.03777 187.60794l5.8896637 8.94017l4.4761505 6.7610626l11.767563 17.844986l65.17505 0.6360626l16.302582 -22.450516l7.1147156 -9.823578c0 0 11.779358 43.098877 26.562408 74.630905c0 0 -0.7774353 10.400757 -6.125244 21.896912c-4.3348083 9.399536 -11.767548 19.576508 -24.218323 25.56015c0 0 0.035339355 1.8728638 0.12957764 5.288727c0.18847656 7.6209106 0.4593811 22.957 0.4593811 41.673645c-0.047088623 56.350098 -2.6974487 143.43127 -18.941162 143.43127c-24.053375 0 -10.778076 -94.24274 -10.778076 -94.24274l-103.72882 -10.765869l0 0c24.642365 23.404602 20.213348 66.45639 32.263596 85.43213c7.1147156 11.2724 -2.5561066 16.431519 -2.5561066 16.431519c-5.677643 4.4170837 -12.815918 5.9012146 -19.836395 5.9012146c-4.2170105 0 -8.386887 -0.5418091 -12.1562805 -1.2838745c-1.2250519 -0.2355957 -2.3676453 -0.4593811 -3.5220184 -0.7420654c-9.859299 -2.4146729 -19.02362 -7.385376 -26.102997 -14.641144c-36.822205 -37.739502 6.301941 -98.989624 19.859955 -124.58511c1.3192749 -2.4735718 2.6856842 -5.12381 4.1580963 -7.9036255c2.6856842 -5.194458 5.6423035 -10.824768 8.528244 -16.431519c5.7483063 -11.178131 11.414169 -22.179596 14.877289 -28.976013c2.1438446 -4.2521667 3.4749146 -6.808197 3.4749146 -6.808197c-9.682617 -4.6879883 -15.654739 -13.687042 -19.318115 -21.99115c-4.275894 -9.71756 -5.3713684 -18.481049 -5.3713684 -18.481049c16.926895 -27.974808 31.615723 -75.30231 31.615723 -75.30231z" fill-rule="evenodd"/><path fill="#85bdbf" d="m188.1125 303.3843c-0.4711609 25.465912 -7.1735992 48.705627 -14.79483 72.98187c-7.621231 24.323364 -15.513382 48.917664 -16.655975 74.33646c-0.82455444 18.033447 2.1438293 36.7854 10.177338 52.76935c-1.2250519 -0.2355957 -2.3676453 -0.4593811 -3.5220184 -0.7420654c-9.859299 -2.4146729 -19.02362 -7.385376 -26.103012 -14.641144c-36.82219 -37.739502 6.301956 -98.989624 19.85997 -124.58511c3.6987 -6.996643 8.22197 -15.713013 12.68634 -24.335144c5.7483063 -11.178131 11.414169 -22.179596 14.877289 -28.976013c2.1438446 -4.2521667 3.4631348 -6.796417 3.4748993 -6.808197z" fill-rule="evenodd"/><path fill="#85bdbf" d="m195.03867 187.60794l5.889679 8.94017c-1.8729248 11.637512 -15.972778 49.153214 -18.434662 58.88257c-2.4736633 9.670456 -2.4736633 20.577682 2.8741608 29.023117c3.8400574 6.1132507 10.259796 10.860138 11.732208 17.88034c1.0012512 5.0295715 -0.73031616 10.094482 -2.4618835 14.935608c-7.8568115 21.720245 -15.713623 43.44046 -23.546875 65.160706l-9.859314 -26.832275c2.6856995 -5.194458 5.6423035 -10.824768 8.528244 -16.431519c5.7483063 -11.178131 11.414169 -22.179596 14.877289 -28.976013c2.1438446 -4.2521667 3.4749146 -6.808197 3.4749146 -6.808197c-9.682617 -4.6879883 -15.654739 -13.687042 -19.318115 -21.99115c-4.275894 -9.71756 -5.3713684 -18.481049 -5.3713684 -18.481049c16.926895 -27.974808 31.615723 -75.30231 31.615723 -75.30231z" fill-rule="evenodd"/><path fill="#342752" d="m271.48596 407.58188l2.7917175 0.36514282c-0.14135742 0.73028564 -10.236237 73.888855 3.6515808 89.86099c1.6373291 1.8728333 3.510254 2.7798157 5.7012024 2.7798157l0 2.8387146c-3.015503 0 -5.665863 -1.283905 -7.8096924 -3.7928162c-14.747711 -16.926239 -4.7824097 -88.98935 -4.3348083 -92.05185z" fill-rule="evenodd"/><path fill="#91ddd4" fill-opacity="0.8423" d="m253.19289 404.38974l0 0c-1.5077667 48.375824 -6.0781403 97.61151 -18.305084 97.61151c-24.006287 0 -10.7191925 -94.24274 -10.7191925 -94.24274l29.024277 -3.3687744z" fill-rule="evenodd"/><path fill="#342752" d="m222.74332 407.58188l2.7917023 0.36514282c-0.09423828 0.73028564 -10.236237 73.888855 3.6869354 89.86099c1.6491089 1.8728333 3.4748993 2.7798157 5.665848 2.7798157c3.3688965 0 9.670837 -5.7951965 13.734711 -44.724365l2.7799225 0.28268433c-1.4959717 14.32312 -3.4160004 25.501251 -5.7483215 33.2164c-2.8741455 9.446655 -6.3843994 14.063995 -10.766312 14.063995c-3.015503 0 -5.6187286 -1.283905 -7.8096924 -3.7928162c-14.6888275 -16.926239 -4.7470703 -88.98935 -4.334793 -92.05185z" fill-rule="evenodd"/><path fill="#342752" d="m273.3943 252.7697c1.9200134 0 3.474884 2.968277 3.474884 6.5726166c0 3.6043396 -1.5548706 6.5726013 -3.474884 6.5726013c-1.9082642 0 -3.451355 -2.9682617 -3.451355 -6.5726013c0 -3.6043396 1.5430908 -6.5726166 3.451355 -6.5726166z" fill-rule="evenodd"/><path fill="#85bdbf" d="m227.63545 243.26843c4.4857635 0 8.982071 0.9792328 13.141418 2.7271423c3.0115662 1.2635345 6.19162 3.5063324 6.3601074 6.781006c0.11582947 2.685028 -1.9164581 4.96994 -3.91716 6.802063c-7.7921753 7.2232666 -17.585068 14.772919 -28.557312 15.794281c-0.43171692 0.031585693 -0.8634491 0.052642822 -1.3057098 0.052642822c-3.02211 0 -6.096863 -0.894989 -8.160736 -3.0325012c-2.9378662 -3.064087 -3.2642975 -7.833954 -2.1586456 -11.919403c2.0006866 -7.339081 8.160736 -13.256668 15.373764 -15.699509c2.9799957 -1.0213623 6.096863 -1.505722 9.224274 -1.505722z" fill-rule="evenodd"/><path fill="#342752" d="m219.99892 252.7697c1.920044 0 3.4749146 2.968277 3.4749146 6.5726166c0 3.6043396 -1.5548706 6.5726013 -3.4749146 6.5726013c-1.9082489 0 -3.4513397 -2.9682617 -3.4513397 -6.5726013c0 -3.6043396 1.5430908 -6.5726166 3.4513397 -6.5726166z" fill-rule="evenodd"/><path fill="#342752" d="m247.79794 268.61255c2.4265442 0 4.7941895 0.5064697 5.606964 2.190857c0.7774353 1.6019287 0.10600281 3.521881 -0.71855164 5.0766907c-0.9658966 1.7903748 -2.4854279 4.9353333 -4.6174927 4.9353333c-0.09423828 0 -0.17668152 0 -0.2709198 -0.011779785c-0.082458496 0.011779785 -0.16491699 0.011779785 -0.25915527 0.011779785c-2.0967102 0 -3.604477 -3.1449585 -4.5821533 -4.9353333c-0.8598938 -1.5548096 -1.5430908 -3.474762 -0.7774353 -5.0766907c0.82455444 -1.6843872 3.2510986 -2.190857 5.618744 -2.190857z" fill-rule="evenodd"/><path fill="#342752" d="m170.07823 395.99127c15.336685 14.5469055 19.62436 36.27893 23.358414 55.454926c2.379425 11.814209 4.570389 22.99234 9.140762 30.20102c2.5561218 4.0637207 3.3688965 7.8565063 2.4618835 11.319489c-1.2368317 4.7940063 -5.347824 7.0319824 -5.5245056 7.114441l-1.3192902 -2.461792c0 -0.04711914 3.1921997 -1.778595 4.146332 -5.3358154c0.683197 -2.6973572 -0.035339355 -5.7480774 -2.1438446 -9.116852c-4.8413086 -7.66803 -7.1147156 -19.081757 -9.494141 -31.17865c-3.6869354 -18.763763 -7.8450317 -40.024628 -22.545639 -53.947235l1.9200287 -2.04953z" fill-rule="evenodd"/><path fill="#85bdbf" d="m244.82954 403.05872c4.8413086 0 8.763824 8.539673 8.763824 19.081757c0 10.542084 -3.9225159 19.070007 -8.763824 19.070007c-4.8766327 0 -8.799149 -8.527924 -8.799149 -19.070007c0 -10.542084 3.9225159 -19.081757 8.799149 -19.081757z" fill-rule="evenodd"/><path fill="#85bdbf" d="m259.8128 381.93887c2.2262878 0 4.063843 3.957672 4.063843 8.845917c0 4.8882446 -1.8375549 8.810608 -4.063843 8.810608c-2.2380981 0 -4.0638885 -3.9223633 -4.0638885 -8.810608c0 -4.8882446 1.8257904 -8.845917 4.0638885 -8.845917z" fill-rule="evenodd"/><path fill="#85bdbf" d="m285.99805 419.4434c3.557373 0 6.4432983 6.2545776 6.4432983 13.922607c0 7.7151794 -2.8859253 13.922638 -6.4432983 13.922638c-3.5102234 0 -6.3843994 -6.2074585 -6.3843994 -13.922638c0 -7.66803 2.874176 -13.922607 6.3843994 -13.922607z" fill-rule="evenodd"/><path fill="#85bdbf" d="m203.1663 368.8759c6.619995 0 12.003143 11.684631 12.003143 26.113739c0 14.417358 -5.383148 26.10199 -12.003143 26.10199c-6.655319 0 -12.050247 -11.684631 -12.050247 -26.10199c0 -14.429108 5.394928 -26.113739 12.050247 -26.113739z" fill-rule="evenodd"/><path fill="#85bdbf" d="m305.7635 189.51616c0 0 11.779358 43.098877 26.562408 74.630905c0 0 -0.7774353 10.400757 -6.125244 21.896912c-13.181091 -27.421204 -22.533875 -56.71524 -27.55188 -86.70424l7.1147156 -9.823578z" fill-rule="evenodd"/><path fill="#85bdbf" d="m196.8722 246.81042c2.226303 0 4.0638733 3.9577026 4.0638733 8.845932c0 4.8882294 -1.8375702 8.810593 -4.0638733 8.810593c-2.2380676 0 -4.063858 -3.9223633 -4.063858 -8.810593c0 -4.8882294 1.8257904 -8.845932 4.063858 -8.845932z" fill-rule="evenodd"/><path fill="#85bdbf" d="m273.41235 300.29047c2.2262878 0 4.0638733 3.9577026 4.0638733 8.845917c0 4.8882446 -1.8375854 8.810608 -4.0638733 8.810608c-2.2380676 0 -4.0638733 -3.9223633 -4.0638733 -8.810608c0 -4.888214 1.8258057 -8.845917 4.0638733 -8.845917z" fill-rule="evenodd"/><path fill="#ff614d" d="m275.93988 142.59322c-1.8271484 0 -3.6596985 1.4747162 -3.7952576 3.7355957c-0.661438 -1.6861725 -2.206665 -2.564499 -3.6813965 -2.564499c-1.9897766 0 -3.8657227 1.5885773 -3.334381 4.9609375c0.927124 5.8826294 8.571838 7.579651 8.571838 7.579651c0 0 6.766388 -3.947052 5.860962 -9.829697c-0.43374634 -2.7488403 -2.0223389 -3.8819885 -3.6217651 -3.8819885z" fill-rule="evenodd"/><path fill="#ff614d" d="m303.71027 103.816605c-2.0440063 0 -4.1531067 1.5668945 -4.695282 4.2615204c-0.5475769 -2.6946259 -2.651245 -4.256096 -4.6952515 -4.256096c-2.206665 0 -4.342865 1.8271408 -4.342865 6.0235977c0 8.083885 9.054382 11.927925 9.054382 11.927925c0 0 9.038116 -3.8657303 9.016449 -11.927925c0 -4.2018814 -2.1307678 -6.029022 -4.337433 -6.029022z" fill-rule="evenodd"/><path fill="#85bdbf" d="m775.99493 250.41885c1.8271484 0 3.659729 1.4749451 3.795227 3.7361603c0.661499 -1.6864166 2.206665 -2.5648804 3.6813965 -2.5648804c1.9898071 0 3.8657227 1.5888062 3.3344116 4.9616547c-0.927124 5.883484 -8.571838 7.5807495 -8.571838 7.5807495c0 0 -6.7663574 -3.9476318 -5.860962 -9.831116c0.43377686 -2.7492523 2.0223389 -3.8825684 3.6217651 -3.8825684z" fill-rule="evenodd"/><path fill="#85bdbf" d="m748.22455 211.63663c2.0440063 0 4.153076 1.5671234 4.6952515 4.2621307c0.5476074 -2.6950073 2.651245 -4.256714 4.6953125 -4.256714c2.206665 0 4.3428345 1.8274078 4.3428345 6.024475c0 8.0850525 -9.054382 11.929657 -9.054382 11.929657c0 0 -9.038147 -3.8662872 -9.016418 -11.929657c0 -4.202484 2.1307373 -6.029892 4.3374023 -6.029892z" fill-rule="evenodd"/></g></svg>