<svg xmlns="http://www.w3.org/2000/svg" width="100" height="100" viewBox="0 0 100 100">
  <defs>
    <style>
      .cls-1 {
        fill: none;
      }

      .cls-1, .cls-2 {
        stroke: #ff614d;
        stroke-width: 7px;
        fill-rule: evenodd;
      }

      .cls-2 {
        fill: #ff614d;
        stroke-linecap: round;
        stroke-linejoin: round;
      }
    </style>
  </defs>
  <path id="Forma_1" data-name="Forma 1" class="cls-1" d="M19.114,32l4.8,54.018c-1.447,2.327,4.235,10.814,5.971,8.022l42-.847c1.623,1.156,6.53-3.9,5.018-4.982l3.2-55.989Z"/>
  <path id="Rectángulo_redondeado_1" data-name="Rectángulo redondeado 1" class="cls-1" d="M12,19H86a5,5,0,0,1,5,5v3a5,5,0,0,1-5,5H12a5,5,0,0,1-5-5V24A5,5,0,0,1,12,19Z"/>
  <path id="Forma_2" data-name="Forma 2" class="cls-1" d="M33,20a18.962,18.962,0,0,1,36,0"/>
  <path id="Línea_1" data-name="Línea 1" class="cls-2" d="M33,44l1,35Z"/>
  <path id="Línea_2" data-name="Línea 2" class="cls-2" d="M49,41l1,40Z"/>
  <path id="Línea_3" data-name="Línea 3" class="cls-2" d="M66,44L65,79Z"/>
</svg>
