<svg xmlns="http://www.w3.org/2000/svg" width="47.84" height="39.008" viewBox="0 0 650 530">
  <defs>
    <style>
      .cls-1, .cls-2 {
        fill: none;
        stroke: #ff614d;
        stroke-linecap: round;
        stroke-linejoin: round;
        fill-rule: evenodd;
      }

      .cls-1 {
        stroke-width: 48.35px;
      }

      .cls-2 {
        stroke-width: 37.43px;
      }
    </style>
  </defs>
  <path id="Forma_1" data-name="Forma 1" class="cls-1" d="M135.485,99.758l447.25,0.928c46.255,0.1,36.641-10.687,29.311,32.351-40.882,240.017-46.8,182.662-424.561,184.722l-72-291h-87"/>
  <path id="Forma_2" data-name="Forma 2" class="cls-1" d="M527.485,387.758l-344-3-13-1-12-2-16-8-7-13v-11l3-11,8-7,8-7,12-5"/>
  <path id="Elipse_1" data-name="Elipse 1" class="cls-2" d="M238.485,438.758c20.987,0,38,15.893,38,35.5s-17.013,35.5-38,35.5-38-15.894-38-35.5S217.5,438.758,238.485,438.758Zm0,0c20.987,0,38,15.893,38,35.5s-17.013,35.5-38,35.5-38-15.894-38-35.5S217.5,438.758,238.485,438.758Zm226,0c20.987,0,38,15.893,38,35.5s-17.013,35.5-38,35.5-38-15.894-38-35.5S443.5,438.758,464.485,438.758Z"/>
</svg>
